<svg xmlns="http://www.w3.org/2000/svg" viewBox="0 0 370 304.18"><defs><style>.cls-1{isolation:isolate;}.cls-2{fill:#9c67e3;}.cls-3,.cls-5{fill:#5418a8;}.cls-4{fill:none;stroke:#7fe0ae;stroke-miterlimit:10;stroke-width:2px;}.cls-5{opacity:0.21;mix-blend-mode:multiply;}.cls-6{fill:#6abbd5;}.cls-7{fill:#efc52e;}.cls-8{fill:#8235c6;}.cls-9{fill:#7fe0ae;}.cls-10{fill:#fff;}.cls-11{fill:#3c3c3c;}</style></defs><g class="cls-1"><g id="Layer_2" data-name="Layer 2"><g id="Capa_2" data-name="Capa 2"><path class="cls-2" d="M107.12,58c-33.65,20.93-71,58.09-79.73,97.91-20.32,93,99.82,149.6,175.17,148.27,47.89-.84,97.37-26.43,116.11-70.51,12.19-28.68,10.34-62,0-91.36C285.76,48.64,195.48,3,107.12,58Z"/><path class="cls-3" d="M117.56,41c-33.65,20.93-71,58.09-79.73,97.91C17.5,231.93,137.65,288.51,213,287.19c47.88-.84,97.37-26.44,116.11-70.51,12.19-28.68,10.34-62,0-91.36C296.2,31.67,205.92-13.94,117.56,41Z"/><path class="cls-4" d="M85.24,36.44C54.82,61.83,23,103.82,19.87,144.46c-7.23,94.93,119.6,134.31,194,122.54,47.3-7.47,92.76-39.69,105.2-85.93,8.1-30.1,1.64-62.8-12.67-90.48C260.86,2.42,165.12-30.23,85.24,36.44Z"/><circle class="cls-5" cx="306.72" cy="69.51" r="57.88" transform="translate(40.68 237.24) rotate(-45)"/><circle class="cls-6" cx="312.13" cy="58.06" r="57.88"/><path class="cls-7" d="M46.82,177,47,165.84a9.46,9.46,0,0,0-14.06-8.4l-9.77,5.45a9.46,9.46,0,0,0-.24,16.37l9.6,5.73A9.45,9.45,0,0,0,46.82,177Z"/><path class="cls-8" d="M305.37,158.06l.11-6.87a5.79,5.79,0,0,0-8.62-5.14l-6,3.34a5.8,5.8,0,0,0-.15,10L296.6,163A5.79,5.79,0,0,0,305.37,158.06Z"/><path class="cls-9" d="M336.69,174.88l-11.64-8.24a12,12,0,0,0-19,8.71l-1.33,14.2a12,12,0,0,0,17,12.06l13-6A12.05,12.05,0,0,0,336.69,174.88Z"/><path class="cls-8" d="M22.71,138.31,36,129.13A13.63,13.63,0,0,0,34,105.6L19.46,98.7A13.63,13.63,0,0,0,.05,112.14l1.32,16.08A13.63,13.63,0,0,0,22.71,138.31Z"/><path class="cls-10" d="M246.14,204.15c-.44,1.85-2.47,3.38-5.4,3.58.12-.55.22-1,.37-1.78-.5.42-1.08.66-1.14,1-.4,2-2,2.56-3.57,2.83-4.84.87-9.7,1.79-14.6,2.23-7.19.65-14.46.58-21.63,1.42-5.47.64-7.93,2.61-6.51,9.37.29,1.4.17,1.94-1.22,2.29-1.57.4-1.8-.41-2-1.65-1.59-8.5,1.41-12.62,10.1-13.32s17.16-.85,25.68-1.77c4.5-.48,8.88-2.07,13.29-3.23a22.93,22.93,0,0,0,3.07-1.26c.19.84.31,1.41.43,2,.44-3.22,3.27-4.37,5.26-6.25,3.41-3.21,5.49-7,4.92-11.86a10.21,10.21,0,0,0-6.13-8.45,17.82,17.82,0,0,0-6-1.86c-6.33-.55-12.68-.8-18.91,1.12a10,10,0,0,0-6.1,4.55c-5.67,9.39-14.34,14.65-24.8,17.23a15.94,15.94,0,0,1-3.76.69c-.71,0-1.42-.7-2.13-1.09.54-.67,1-1.7,1.64-1.93,3-1,6.18-1.53,9.11-2.69,10.44-4.11,17.34-11.42,20.56-22.38,2.28-7.72,2.08-15.4.75-23.06a71.07,71.07,0,0,0-10.67-27.37,6.33,6.33,0,0,0-1.47-1.22,9.08,9.08,0,0,0-1,1.82c-.64,2.26-.82,4.74-1.86,6.8-2.74,5.46-1.23,10.12,2.15,14.52a31.52,31.52,0,0,1,5.93,28c-2.44,9.8-8.93,16.3-18.36,19.87a29.41,29.41,0,0,1-17,1.41c-7.67-1.67-14.56-4.88-18.34-12.36a29.58,29.58,0,0,1-2-6.55c-.26-1.13-.06-2.57,1.47-2.56.55,0,1.45,1.26,1.57,2,1.39,8.54,9.37,14.48,15.83,15.54a59.45,59.45,0,0,0,9,.84c11.45.1,21.62-8.42,24.44-18.73,2.46-8.95.53-16.85-4.57-24.38a47,47,0,0,1-4.92-9.91c-1.14-3,.39-5.95,1.56-8.77,1.25-3,2.4-6,1.76-9.41s-2.81-5.64-5.17-7.75c-1.64-1.47-3.44-1-5.18.22a9.15,9.15,0,0,1-6.76,2c-2.87-.39-4.56-1.88-4.86-4.86-.52-5.11.86-9.77,3.08-14.27,2.65-5.39,5.71-10.49,10.86-13.87A16.56,16.56,0,0,1,197.88,79a1.61,1.61,0,0,1,2.2,1.48,1.67,1.67,0,0,1-1.84,1.94c-2.71.06-4.62,1.72-6.2,3.49a40.48,40.48,0,0,0-9.9,19.67c-.31,1.65-.43,3.4,1.11,4.45a4.12,4.12,0,0,0,4.78-.35,26.68,26.68,0,0,0,4.95-4.13c5-5.73,8.92-12.16,10.58-19.58,2.11-9.45-1.12-15.33-11.73-18.06-9.21-2.38-17.35.51-24,7.37A22.17,22.17,0,0,0,162,88.42c-1,7.68-4.75,12.74-12.3,15.2-6.16,2-12.31,4.24-17.55,8.22-8.45,6.44-12.12,14.93-10,25.48A27,27,0,0,0,134.11,155c1.51,1,2.12.71,2.31-1.19.27-2.67.24-5.39.72-8,1.06-5.83,2-11.71,4.34-17.22s4.9-11,9-15.55c3.76-4.24,8.06-7.62,13.94-8.28a5.76,5.76,0,0,1,2.59.13c.7.25,1.2,1,1.79,1.56a9.3,9.3,0,0,1-2,1.27c-2.58.88-5.45,1.2-7.77,2.52a26.67,26.67,0,0,0-11,12.42,100.8,100.8,0,0,0-6.32,16.83c-1.49,5.83-2.59,11.86-1.77,18,.45,3.47.52,7,1,10.45a25.62,25.62,0,0,0,1.43,5.26c.2.57,1,.95,1.46,1.42a6.67,6.67,0,0,0,1.22-1.46c1.81-4.22,3.45-8.52,5.37-12.69a44.2,44.2,0,0,1,10.39-14.35,32.37,32.37,0,0,1,14.53-7.25c1.21-.29,2.48-.25,2.74,1.25s-.94,1.76-2.05,2c-9.76,2.3-16.51,8.43-21,17.07-2.62,5-4.68,10.33-7,15.49a17.68,17.68,0,0,1-1.52,2.85c-1.4,2-3.89,2.34-5.27.3-2.77-4.1-7-4-11.07-4.14A16.57,16.57,0,0,0,116,180.54c-2.48,3.2-2.69,7.15-1.61,11,1.86,6.71,6.8,10.4,12.84,13.15,6.73,3.05,13.94,3.76,21.09,4.43,8.4.78,16.88.78,25.29,1.46,3.69.3,7.59.67,10.19,4.11,2.39,3.16,2.21,8.74-.62,11.44-.45.42-1.59.75-1.93.49a3,3,0,0,1-.77-2c0-.47.37-1,.64-1.46,2.14-3.65,1-6.93-3-8.38a9.52,9.52,0,0,0-2.56-.59c-5.06-.32-10.12-.76-15.18-.84A132.55,132.55,0,0,1,132.69,210c-7-1.64-13.47-4.61-18-10.51-4.93-6.37-6.18-15.18-.7-21.94a18.32,18.32,0,0,1,12.55-6.69,56.39,56.39,0,0,1,9.88.29c1.44.1,1.67-.51,1.49-1.65-.44-2.86-.79-5.74-1.43-8.56a3.68,3.68,0,0,0-1.83-2.31c-7-2.93-11.39-8.31-14-15.18A40.3,40.3,0,0,1,118,132.89c-.37-4.47,1-8.84,3-12.88,3.64-7.4,9.72-12.15,17.13-15.33,4.1-1.76,8.22-3.46,12.41-5,5-1.83,7-5.77,7.95-10.61s1.79-9.59,4.82-13.63a28.46,28.46,0,0,1,16.42-10.78A26.12,26.12,0,0,1,200,67.77c4.31,2.53,7,6.12,7.13,11.25.11,3.72.26,7.48-1.23,11-.63,1.48-1.45,2.88-2.25,4.44,0,.3.22,1,0,1.44-2,3.33-4.1,6.67-6.35,9.86-1,1.45-1.16,2.16.57,3.09,5.23,2.81,8.67,7.46,11.92,12.22a70.42,70.42,0,0,1,10.36,24.08c1.77,7.71,2.53,15.6,1,23.52-.35,1.79-.64,3.58-1,5.37-.3,1.39.4,1.53,1.47,1.27,5.14-1.24,10.35-2.16,15.63-1.72,5.13.43,10.18,1.26,14.46,4.59a12.14,12.14,0,0,1,4.52,6.76c2.08,8.38-1.84,14.65-8.29,19.35C247.5,204.54,246.76,204.22,246.14,204.15Z"/><path class="cls-10" d="M196.17,166.31c0-8.31-5.81-13.29-14.06-12.11a16.75,16.75,0,0,1-3.41.43c-.64,0-1.23-.79-1.84-1.21.45-.58.81-1.53,1.38-1.68,7-1.86,15.85-1.08,19.64,6.91a16.61,16.61,0,0,1,1.39,10.8,16.83,16.83,0,0,1-9.64,12.45c-7.28,3.61-18.19,1.61-20.53-8.26a11.67,11.67,0,0,1,5.42-12.43c3.89-2.45,9.53-2.1,12.63.91a8.05,8.05,0,0,1,1.86,9,7.48,7.48,0,0,1-6.42,4.93,2.93,2.93,0,0,1-1.74-.24,2,2,0,0,1-1-1.36c0-.42.63-1,1.11-1.21.71-.37,1.57-.43,2.29-.79,2.64-1.31,3.71-3.6,2.84-6a6.14,6.14,0,0,0-6.5-3.74c-4,.86-6.9,3.87-7.12,7.33-.29,4.65,1.79,8,5.92,9.57,5.48,2.06,13.28-1,15.94-6.45a56.88,56.88,0,0,0,2.37-6.72Z"/><path class="cls-11" d="M290.26,66.86V45.14h3.47V66.86a70.39,70.39,0,0,0,.82,12.57c.7,3.52,1.94,5.28,3.7,5.28s3-1.76,3.7-5.28a70.73,70.73,0,0,0,.82-12.57V45.14h3.46V66.86a63.61,63.61,0,0,1-1,13q-1.75,8-7,8t-7-8A63.61,63.61,0,0,1,290.26,66.86Z"/><path class="cls-11" d="M326,45.14V87.35H322.5v-20l-8.63-15.85V87.35H310.4V45.14h3.47L322.5,61V45.14Z"/><path class="cls-11" d="M330.25,66.28a67.42,67.42,0,0,1,1-13.33q1.83-8.4,7-8.4t7,8.4a67.27,67.27,0,0,1,1,13.33,67.78,67.78,0,0,1-1,13.32q-1.83,8.34-7,8.34t-7-8.34A67.93,67.93,0,0,1,330.25,66.28Zm8,18.43q4.57,0,4.58-18.43t-4.58-18.5q-4.51,0-4.52,18.5T338.23,84.71Z"/></g></g></g></svg>