<svg xmlns="http://www.w3.org/2000/svg" viewBox="0 0 339.35 350.5"><defs><style>.cls-1{isolation:isolate;}.cls-2{fill:#9c67e3;}.cls-3{fill:#efc52e;}.cls-4{fill:none;stroke:#5418a8;stroke-miterlimit:10;stroke-width:2px;}.cls-5,.cls-8{fill:#5418a8;}.cls-5{opacity:0.21;mix-blend-mode:multiply;}.cls-6{fill:#8235c6;}.cls-7{fill:#7fe0ae;}.cls-9{fill:#606060;}.cls-10{fill:#fff;}</style></defs><g class="cls-1"><g id="Layer_2" data-name="Layer 2"><g id="Capa_2" data-name="Capa 2"><path class="cls-2" d="M300.75,218.22,287.59,102.28A42.53,42.53,0,0,0,262.21,68l-108-46.68a42.53,42.53,0,0,0-42.08,4.78L17.34,95.82A42.53,42.53,0,0,0,.27,134.89l13.16,116a42.54,42.54,0,0,0,25.39,34.25l108,46.68A42.53,42.53,0,0,0,188.9,327l94.79-69.7A42.54,42.54,0,0,0,300.75,218.22Z"/><path class="cls-3" d="M307.93,203.22,294.77,87.28A42.53,42.53,0,0,0,269.38,53l-108-46.69a42.54,42.54,0,0,0-42.07,4.78L24.52,80.82A42.52,42.52,0,0,0,7.45,119.89L20.61,235.83A42.54,42.54,0,0,0,46,270.08l108,46.68A42.54,42.54,0,0,0,196.07,312l94.79-69.7A42.53,42.53,0,0,0,307.93,203.22Z"/><path class="cls-4" d="M332,202.58,318.72,85.94A42.93,42.93,0,0,0,293.2,51.42L185.57,4.57a42.92,42.92,0,0,0-42.65,4.84L48.53,79.19A42.93,42.93,0,0,0,31.4,118.55L44.64,235.19A42.92,42.92,0,0,0,70.15,269.7l107.63,46.86a42.94,42.94,0,0,0,42.65-4.84l94.4-69.79A42.91,42.91,0,0,0,332,202.58Z"/><circle class="cls-5" cx="103.35" cy="292.62" r="57.88" transform="translate(-5.46 1.99) rotate(-1.07)"/><circle class="cls-6" cx="111.67" cy="280.52" r="57.88" transform="matrix(1, -0.05, 0.05, 1, -14.04, 6.01)"/><path class="cls-7" d="M75.05,144.93l.17-11.18a9.45,9.45,0,0,0-14-8.4L51.4,130.8a9.45,9.45,0,0,0-.25,16.37l9.61,5.74A9.45,9.45,0,0,0,75.05,144.93Z"/><path class="cls-6" d="M204.53,271l.16-11.18a9.45,9.45,0,0,0-14.05-8.4l-9.77,5.45a9.45,9.45,0,0,0-.24,16.37l9.6,5.73A9.45,9.45,0,0,0,204.53,271Z"/><path class="cls-6" d="M63,178.57l.1-6.87a5.79,5.79,0,0,0-8.62-5.14l-6,3.34a5.8,5.8,0,0,0-.15,10l5.89,3.52A5.8,5.8,0,0,0,63,178.57Z"/><path class="cls-8" d="M333,189.45l5.5-15.16a13.64,13.64,0,0,0-15.2-18.07l-15.88,2.83a13.63,13.63,0,0,0-8.05,22.19l10.39,12.34A13.62,13.62,0,0,0,333,189.45Z"/><path class="cls-9" d="M189.7,113.14c-3.91,1.31-7.68,1.72-10.94-1.61-.28,1.33-.52,2.52-.79,3.71-1.11,5-4.07,7.53-9.21,7.31-5.88-.25-11.48.43-15.58,5a57.91,57.91,0,0,0-7.44,10.37c-3.47,6.23-5.48,13.09-7,20-.65,3-.21,6.37-1.16,9.27-1.39,4.28-1.33,8.58-1.22,12.87a81.67,81.67,0,0,0,1.51,11.48c.35,2,1.28,2.25,2.59.71,1.87-2.2,3.66-4.49,5.32-6.86,4.73-6.74,9.7-13.31,15.86-18.82,4-3.59,8.53-6.42,14.22-6.5.59,0,1.35-.14,1.73.16.7.54,1.61,1.37,1.6,2.06s-1,2-1.61,2c-9.06.24-14.48,6.26-19.65,12.45-4.38,5.24-8.26,10.9-12.51,16.26a26.28,26.28,0,0,1-5.08,4.86c-1.91,1.38-3.89.78-4.94-1.35s-1.72-4.52-2.67-6.75a5.48,5.48,0,0,0-1.61-2.5c-6.79-4.35-10.51-10.95-13.15-18.21a52.15,52.15,0,0,1-2.65-24.69,39.21,39.21,0,0,1,10.53-22.67c4.93-5.21,10.91-9,16.76-13.08a72.37,72.37,0,0,0,7.52-5.73,17,17,0,0,0,5.55-11.43,159.12,159.12,0,0,1,2-16.19c1.75-8.55,5.94-15.68,14.3-19.37,6.29-2.78,12.76-3,19,.41a15.44,15.44,0,0,1,7.49,10.45A122.54,122.54,0,0,1,200.66,80c1.05,8.48,3.92,16,10.48,21.86a111.09,111.09,0,0,1,12.35,12.67,41.23,41.23,0,0,1,7.31,15.39,60,60,0,0,1,.25,29.08c-.76,3.41.06,7.18.22,10.78.51,11.24-1.69,21.82-7.54,31.53a48.29,48.29,0,0,1-19.23,18.25,39.51,39.51,0,0,1-17.49,5c-2.69.06-5.38.13-8.06.08-1.29,0-2.4-.59-2.27-2.14s1.25-1.83,2.55-1.94c4.44-.39,9-.37,13.29-1.34a41.79,41.79,0,0,0,25.36-16.88c4.65-6.43,7.16-13.63,8.52-21.4,1.31-7.47.53-14.78-.59-22.14a53,53,0,0,0-6.38-19.35,29.24,29.24,0,0,0-11-11.09A72.62,72.62,0,0,0,198.36,124c-4.67-1.73-8-4.4-8.34-9.79A5.43,5.43,0,0,0,189.7,113.14Zm-57.95,69.34a37.46,37.46,0,0,1,.05-5.29,3.88,3.88,0,0,0-.94-3.43,26.61,26.61,0,0,1-5.9-15.41,79.39,79.39,0,0,1,.6-13.15c.86-8.82,5.61-15.58,12-21.33,3.9-3.52,8-6.81,12-10.21,3.51-3,7.19-5.86,9-10.3,1.13-2.8,2.08-5.67,3-8.55,3.3-10.3,8.36-19.44,17.23-26,2.05-1.52,4.22-2.91,6.41-4.23,1.07-.65,2.39-.76,3.16.5s.22,2.4-1,3.18c-.22.14-.45.27-.67.42-4.55,2.92-9,6-12.24,10.43a8.66,8.66,0,0,0-1.68,4.42,35.09,35.09,0,0,0,.72,7.42c1.08,6.1,3.07,11.84,7.35,16.53,3,3.33,6.2,3.13,8.87-.55,4.36-6,6.17-12.94,6.48-20.14a97.19,97.19,0,0,0-1.06-15.49,24,24,0,0,0-2.06-6.52,9.16,9.16,0,0,0-5.33-5.28,18.81,18.81,0,0,0-11.65-.34c-8.42,2.45-12.45,8.93-14,17-1.06,5.4-1.33,11-2,16.42a21.39,21.39,0,0,1-8.22,14.74c-3.59,2.76-7.37,5.27-11.06,7.9-5.83,4.17-11.93,8.11-15.61,14.51a39.84,39.84,0,0,0-4.44,10,47.26,47.26,0,0,0-.73,19.15,45.49,45.49,0,0,0,7.26,18.74A44.58,44.58,0,0,0,131.75,182.48ZM168.23,89c-1.26,3.64-2.48,6.88-3.5,10.17-1.82,5.89-4.48,11.16-9.4,15.17-5.29,4.32-10.45,8.8-15.53,13.37-3.84,3.46-7.1,7.5-8.69,12.5a44,44,0,0,0-1.43,19.7,19.52,19.52,0,0,0,2.54,8.07c1-4.4,1.89-8.53,2.77-12.68a70.14,70.14,0,0,1,11.07-26.13,27.12,27.12,0,0,1,11.76-9.89,14,14,0,0,0,3.76-2.37,14.89,14.89,0,0,0,4.65-9.54c.2-1.46.72-2.72,2.42-2.42a2.35,2.35,0,0,1,1.89,3.16c-.76,2.69-1.8,5.31-2.76,8-.21.57-.53,1.1-.81,1.68,3.77,1.22,6.71-.36,6.95-3.92a25,25,0,0,0-.66-7.8C171.85,100.5,170.05,95.08,168.23,89Zm31.55,4.74c-1.35,4.6-2.66,8.58-3.66,12.63a52.15,52.15,0,0,0-1.32,8.33,3.84,3.84,0,0,0,3.18,4.37c4.76,1.07,9,3.34,13.1,5.72,1.44.83,2.77,1.86,4.47,3-.49-1.91-1.62-2.67-2.69-3.71a133.16,133.16,0,0,1-9-10,69.07,69.07,0,0,1-5.09-7,2.27,2.27,0,0,1,.48-2.19,3.24,3.24,0,0,1,2.48-.25c.57.17,1,1,1.41,1.57,3,4.83,7.23,8.57,11.24,12.52,1.92,1.89,4,4.07,4.82,6.51,2.1,5.89,3.33,12.09,6.67,17.54a30.5,30.5,0,0,1,2.06,5.33,44.22,44.22,0,0,0-2.89-21.72c-2.56-6.36-6-12.15-11.31-16.6S203.07,100.82,199.78,93.74Z"/><path class="cls-9" d="M180.5,214c-13.86.21-22.75-5.53-30-14.36a10.87,10.87,0,0,1-2.05-4.42,3.23,3.23,0,0,1,1.16-2.72c1.13-.72,2.1.25,2.64,1.33,3.94,7.88,10.63,12.43,18.78,14.81,8.68,2.53,17.07.82,25-3.18,7.22-3.64,12.73-9,15.71-16.69,2.2-5.65,2.13-11.18-.93-16.52q-1.86-3.25-3.87-6.41c-2.93-4.63-2.7-9.3-.4-14.08a13.64,13.64,0,0,0-.56-13.22c-.77-1.36-2.25-2.33-3.38-3.5-.81-.84-2.28-1.45-1.2-3a2.65,2.65,0,0,1,3.86-.47,16,16,0,0,1,6.84,11.09,18.61,18.61,0,0,1-1.85,11.67,9,9,0,0,0,.37,9.21c1.59,2.57,3.16,5.16,4.55,7.84,3.94,7.58,2.85,15.09-.89,22.31-4.44,8.55-11.56,14.12-20.48,17.58C188.86,213.11,183.85,214.17,180.5,214Z"/><path class="cls-9" d="M205.52,174.52c-.17,4.68-2.39,7.53-5.11,10s-5.72,4.45-8.33,6.93a49.22,49.22,0,0,0-5.06,6.22c-.86,1.14-1.59,2.49-3.27,1.61s-1.38-2.27-.62-3.72c2.82-5.38,7.56-8.82,12.21-12.39,2.24-1.71,4.41-3.53,5.47-6.33a3.42,3.42,0,0,0-.78-4.14,2.81,2.81,0,0,0-4,.21,82.28,82.28,0,0,0-6.82,7c-2.09,2.45-2.94,2.46-4.92-.14a27.41,27.41,0,0,0-4-4.08,5,5,0,0,0-2.54-.93c-2.67-.33-3.76.9-3,3.5,1.11,3.66,2.81,6.93,6.4,8.89a3.17,3.17,0,0,1,1.44,2.27c.05,1.53-1.9,2.33-3.49,1.44a17.55,17.55,0,0,1-8-9.44,14.24,14.24,0,0,1-.92-4,6.76,6.76,0,0,1,9.82-6.77,22.43,22.43,0,0,1,5.22,3.8c1.15,1,1.73.81,2.75-.12a50.39,50.39,0,0,1,6.92-5.75C200.11,165.35,205.94,170.45,205.52,174.52Z"/><path class="cls-9" d="M145.27,174.48c1.34-2.59,2.52-5,3.8-7.29,1-1.79,2.24-3.42,3.1-5.26,1.2-2.6.71-5.26-.46-7.75-3-6.4-2.92-12.64,1-18.57a20.18,20.18,0,0,1,4.33-4.22,2.21,2.21,0,0,1,3.34.33c1,1.3.25,2.39-.9,3.15-5.45,3.6-6.89,11-4,17.31a31.93,31.93,0,0,1,1.92,6A5.8,5.8,0,0,1,157,161a27,27,0,0,1-1.67,4.09c-1.73,3.3-3.57,6.54-5.37,9.81-.12.23-.18.56-.37.69-.79.59-1.86,1.73-2.4,1.53C146.42,176.8,146,175.53,145.27,174.48Z"/><path class="cls-10" d="M98.14,271.13q1.41,4.53,1.41,15.85t-1.41,15.86q-2.48,7.64-10,7.63H83.4v-47h4.7Q95.68,263.5,98.14,271.13Zm-3.47,29.42q1.06-3.76,1.06-13.57t-1.06-13.56q-1.64-6.29-7-6.28h-.41v39.69h.41Q93,306.83,94.67,300.55Z"/><path class="cls-10" d="M103.66,287a74.35,74.35,0,0,1,1.11-14.79q2-9.29,7.81-9.28t7.75,9.28A73.45,73.45,0,0,1,121.45,287a73.5,73.5,0,0,1-1.12,14.8q-2,9.29-7.75,9.28t-7.81-9.28A74.4,74.4,0,0,1,103.66,287Zm8.92,20.44q5.06,0,5-20.44t-5-20.43q-5.06,0-5,20.43T112.58,307.42Z"/><path class="cls-10" d="M131.25,287q-5.69-6.57-5.69-10.8a18.85,18.85,0,0,1,1.17-5.81,11.34,11.34,0,0,1,8.16-7.46L137,266.2q-6.93.58-7.46,10.33,0,2,2.7,5.7c1.14,1.45,2.27,2.88,3.41,4.28q4.28,6,4.28,11.28a17.5,17.5,0,0,1-1.35,5.81,12.32,12.32,0,0,1-9.22,7.46l-2-3.29a8.61,8.61,0,0,0,7.51-5.46,13.74,13.74,0,0,0,1.12-4.87Q136,292.45,131.25,287Z"/></g></g></g></svg>