<svg xmlns="http://www.w3.org/2000/svg" viewBox="0 0 330.28 348.76"><defs><style>.cls-1{isolation:isolate;}.cls-2{fill:#a8ccac;}.cls-3{fill:#76aa91;}.cls-4{fill:none;stroke:#fff;stroke-miterlimit:10;stroke-width:2px;}.cls-5{fill:#5418a8;opacity:0.21;mix-blend-mode:multiply;}.cls-6{fill:#bb5797;}.cls-7{fill:#efc52e;}.cls-8{fill:#007372;}.cls-9{fill:#fff;}</style></defs><g class="cls-1"><g id="Layer_2" data-name="Layer 2"><g id="Capa_2" data-name="Capa 2"><path class="cls-2" d="M14.64,170.55c-10,35.2-9.48,72.67,17.22,97.12C75.92,308,153.51,314.49,206.7,310c22.76-1.94,45.73-6.74,66.08-19s38-32.75,44.92-58.61c11.32-42-7-87.07-29.08-122.54-18.29-29.42-39.82-56.55-66-75.74C169-5.19,112.35,1,71.63,59.21,53.45,85.21,26.73,128.13,14.64,170.55Z"/><path class="cls-3" d="M23.78,161.41c-10,35.2-9.49,72.68,17.21,97.12,44.07,40.35,121.66,46.83,174.85,42.3,22.75-1.93,45.72-6.73,66.08-19s37.95-32.75,44.91-58.61c11.32-42-7-87.07-29.08-122.54-18.28-29.43-39.82-56.55-66-75.74-53.59-39.27-110.27-33.12-151,25.12C62.59,76.07,35.86,119,23.78,161.41Z"/><path class="cls-4" d="M29.78,100.9C6.6,129.22-7.78,163.83,7,196.87c24.42,54.53,93.05,91.28,143.67,108.25,21.65,7.26,44.64,12,68.19,8.81s47.84-15,64.49-36c27.08-34.07,28.12-82.7,22-124-5.1-34.26-14.09-67.71-30.5-95.72C241.25.92,186.78-15.95,126.29,21.34,99.28,38,57.71,66.77,29.78,100.9Z"/><circle class="cls-5" cx="85.48" cy="290.88" r="57.88" transform="translate(-192.83 170.62) rotate(-50.25)"/><circle class="cls-6" cx="93.8" cy="278.78" r="57.88" transform="translate(-188.31 362.02) rotate(-87.84)"/><path class="cls-6" d="M56.2,118.54l.16-11.18a9.45,9.45,0,0,0-14-8.4l-9.77,5.45a9.45,9.45,0,0,0-.24,16.37l9.6,5.74A9.45,9.45,0,0,0,56.2,118.54Z"/><path class="cls-7" d="M309.87,157.54,295.7,156a12,12,0,0,0-12.38,16.8L289,185.82a12.05,12.05,0,0,0,20.74,2.32l8.46-11.48A12,12,0,0,0,309.87,157.54Z"/><path class="cls-8" d="M291.71,127.35l13.3-9.12a13.64,13.64,0,0,0-1.82-23.54l-14.56-7a13.62,13.62,0,0,0-19.46,13.35l1.24,16.08A13.63,13.63,0,0,0,291.71,127.35Z"/><path class="cls-9" d="M159,208.71c-.05-4.53-.5-8.94-.05-13.25.62-5.92,4.37-9.88,9.59-12.44,2.67-1.31,5.44-2.42,8.19-3.57a2.67,2.67,0,0,0,1.91-2.92,72.23,72.23,0,0,1,0-11.95c.64-5.1-.83-9-4.76-12.14q-4.81-3.83-9.57-7.71c-2.93-2.39-3.36-5.59-2.64-9A48.47,48.47,0,0,1,168.28,120a3.74,3.74,0,0,0,.18-3.94c-1.06-2.7-2.05-5.73-1.91-8.56a74.13,74.13,0,0,1,4.79-21.58,2.55,2.55,0,0,1,.67-1.26,21,21,0,0,1,2.56-1.27c.39.87,1.25,1.85,1.07,2.58-.68,2.89-1.92,5.65-2.52,8.55A100.6,100.6,0,0,0,170.77,109c-.34,5.48,2.69,7.54,7.91,5.83a20.24,20.24,0,0,0,4.78-2.74c1.31-.89,1-1.69-.28-2.54a25.37,25.37,0,0,1-4.28-3.45c-.45-.44-.26-1.51-.36-2.3a18.07,18.07,0,0,1,2.09.64c.34.15.56.57.85.85,3.8,3.77,5.66,3.62,8.86-.56C196,97.32,201,89.57,203.48,80.47a33.32,33.32,0,0,0,1.2-6.39c.32-4.8-3.46-8.62-8.92-9.82a20.63,20.63,0,0,0-12.23.7,74.71,74.71,0,0,0-8.4,4c-7.89,4.27-16.17,3.85-24.59,2.32-5-.92-10-1.2-15,.78-8.12,3.24-14.81,12.46-14.09,20.12.3,3.1,1.35,6.12,1.9,9.2,1.27,7-.43,10.53-6.64,13.93-6,3.27-12,6.49-18,9.83a5.23,5.23,0,0,0-2.29,2.34c-2.84,7.09-5.78,14.18-5.07,22.1,1.15,12.72,5.59,23.83,16.25,31.57,2.66,1.93,6,3.06,9.09,4.26,2.16.82,2.77.22,2.27-2a74,74,0,0,1-1.42-22.09c.83-11,3.23-21.53,10.75-30.14,4.78-5.47,10.71-8.59,18.14-7.33,5,.85,9.51,6.31,9.74,11.32,0,.72-.57,2-1.08,2.09a2.84,2.84,0,0,1-2.39-.88,19.46,19.46,0,0,1-1.59-3.49c-2.24-4.74-5.91-6.33-10.91-4.73-6.82,2.18-11,7.2-13.69,13.45a64.17,64.17,0,0,0-3.77,39,80.58,80.58,0,0,0,9.87,26,49.13,49.13,0,0,0,29.6,22.19,95.17,95.17,0,0,0,20.16,3.39,59.93,59.93,0,0,0,23.2-3.77,71.1,71.1,0,0,0,23.84-13.88,7.78,7.78,0,0,1,2.5-1.84,7.67,7.67,0,0,1,2.85.25c-.14.94.06,2.23-.48,2.74a66.59,66.59,0,0,1-7.72,6.54c-13.48,9.32-28.34,14.46-44.85,14-14.11-.41-27.4-3.85-39-12.31-9.23-6.76-15.39-15.87-19.47-26.47a52.21,52.21,0,0,0-2.08-5.39,3.71,3.71,0,0,0-2.29-1.77c-10.21-1.68-17.69-7.52-23.44-15.68a43.17,43.17,0,0,1-8-23.43c-.25-6.13-.06-12.21,2.16-18.09,3-8,8.68-13.39,16.2-17.06,3-1.49,6.11-2.91,9.08-4.51,4.37-2.36,5.26-4.47,4.29-9.29-.61-3-1.34-6-1.69-9-.9-7.82,2.32-13.94,7.75-19.4,7.06-7.1,15.62-8.2,24.79-6.82a59.89,59.89,0,0,0,16.74.49,23.41,23.41,0,0,0,5.7-1.89c3.75-1.58,7.31-3.72,11.18-4.84,7.67-2.2,15.09-1.86,21.43,3.94,3.47,3.18,3.93,7.21,3.45,11.53-.72,6.34-3.44,12-6,17.75a41.73,41.73,0,0,0-2.89,10.33c-.8,5.05,1.56,9.39,4.06,13.59,1.73,2.9,3.41,5.83,5.09,8.75,3.14,5.45,3.32,11.31,2.53,17.34-.14,1-.12,2.46.47,3.08,1.17,1.23,2.71,1.64,4.15-.06a47.68,47.68,0,0,1,11.83-10.16C237.49,131,250,138,251.28,146a33.8,33.8,0,0,1,0,11.7,78.69,78.69,0,0,1-4.83,14.09c-1.06,2.52-1.08,4.32.66,6.59a122.38,122.38,0,0,1,8,12c2.68,4.5-.17,9.39-5.43,9a142.45,142.45,0,0,1-15.75-2.23,5.14,5.14,0,0,0-5.34,1.63c-6.05,6.6-12.43,12.86-20.32,17.29a11.43,11.43,0,0,1-3.11.76c.39-1.45.33-3.35,1.25-4.27,1.79-1.78,4.3-2.83,6.21-4.52,4.15-3.67,8.12-7.55,12.14-11.36a8.32,8.32,0,0,0,.9-1.48c-2.45-1.12-4.74-2.24-7.08-3.22a45,45,0,0,1-14.66-10.43c-1-1-1.9-2.25-.59-3.54s2.58-.54,3.58.54c5.08,5.53,11.37,9.16,18.29,11.84,3.45,1.33,4.17,1.22,6.32-1.75,6.17-8.51,11.58-17.48,14.63-27.6,1.41-4.71,2.75-9.58.93-14.67S239,138,233.56,139.71c8.77,3.58,11.88,10.22,9.88,18.86-1.45,6.25-6.33,10.11-12.4,11.27-9.26,1.78-14.7-3.24-17.31-12l-.81-.16c-.29.57-.57,1.15-.89,1.7-5.87,10.21-15.16,16.19-25.64,20.69-4.95,2.12-9.9,4.25-14.93,6.19-8.21,3.17-10.39,12.26-8.09,19.34,2.76,8.48,9.12,12.28,17.38,13.63,1.88.31,2.82,1.2,1.8,2.85a3.39,3.39,0,0,1-3,1,80,80,0,0,1-12-4.17c-9.59-4.57-17.88-10.86-23.86-19.82a36.12,36.12,0,0,1-6.24-15.54,88.32,88.32,0,0,1-.95-14.86c.25-5.09,1.42-10.15,2.4-15.18.15-.77,1.45-1.31,2.22-2,.51.81,1.47,1.62,1.45,2.41a42.92,42.92,0,0,1-.84,5.69c-1.17,7.32-1.88,14.62-.54,22a36,36,0,0,0,6.3,15.26c3.09,4.14,7.07,7.63,10.68,11.38A2.24,2.24,0,0,0,159,208.71Zm36.1-101.85-.77-.26c-1.51,1.72-2.95,3.53-4.56,5.16-3.47,3.53-7.12,7.1-12.31,7.45-3,.21-5.06,1.08-6.15,3.89-1.87,4.77-4,9.45-5.48,14.33-.95,3.08.55,4.24,3.67,3.8s6.37-.91,9.58-1.06a64.19,64.19,0,0,1,25.55,4.06c1.69.63,2.54.06,2.7-1.53a30.78,30.78,0,0,0,.25-6.7c-.75-5.92-4.37-10.61-7.1-15.69-1.66-3.09-3.08-6.32-4.46-9.55A22.62,22.62,0,0,1,195.12,106.86Zm-22.65,37.89c.3.86.32,1.15.47,1.29a13.64,13.64,0,0,0,1.65,1.39c6.75,4.63,9.37,10.89,7.95,19a34.21,34.21,0,0,0-.17,7.71c.13,2.31.86,2.6,2.94,1.76a50.22,50.22,0,0,0,25.43-22c.79-1.37.67-2.21-.81-2.84-2.07-.88-4.08-1.9-6.17-2.7a64.86,64.86,0,0,0-21.21-4.26C179.27,144,176,144.5,172.47,144.75Zm57.65-.76c-4.9-.84-12.35,5.76-12.17,11.11.2,5.88,4.61,11.19,9.9,11.07,5.65-.13,12.16-5.64,12-11.39C239.59,148.13,236,144,230.12,144Zm16.51,51.11.06-.35c1.2,0,2.42.08,3.62,0,1.61-.14,2.19-.95,1.21-2.43-2.41-3.61-4.86-7.2-7.24-10.83-1.12-1.72-2-1.46-3,.12q-3.09,4.74-6.37,9.36c-.91,1.28-.88,2,.79,2.32Z"/><path class="cls-9" d="M226.53,161.61c-1.68-1.27-3.37-2.41-4.85-3.76-.36-.34-.08-1.38-.09-2.1a6.5,6.5,0,0,1,1.87.48,47,47,0,0,1,3.85,2.73,11.15,11.15,0,0,1,1.31,1.35Z"/><path class="cls-9" d="M74.51,258.74H69.46v43.33H65.58V258.74h-5V255.1h14Z"/><path class="cls-9" d="M86.66,302.07a209.37,209.37,0,0,1-6.22-22.78c-1.06.36-1.84.59-2.35.71v22.07H74.21v-47h5.17q9.33,0,9.33,10.92,0,8-4.81,11.51a140.56,140.56,0,0,0,7,24.54Zm-7.81-26.48A5.12,5.12,0,0,0,82.31,274q2.76-2.58,2.76-7.93,0-3.69-1.11-5.28-1.41-2-5-2h-.88v16.68A1.53,1.53,0,0,0,78.85,275.59Z"/><path class="cls-9" d="M98.28,258.74v12.45h6.4v3.58h-6.4v23.66h6.87v3.64H94.41v-47h10.74v3.64Z"/><path class="cls-9" d="M114.08,278.59q-5.7-6.58-5.7-10.81a18.91,18.91,0,0,1,1.18-5.81,11.28,11.28,0,0,1,8.16-7.45l2,3.28q-6.93.6-7.45,10.34,0,2,2.7,5.69c1.13,1.45,2.27,2.88,3.4,4.29q4.29,6,4.29,11.27a18,18,0,0,1-1.35,5.81,12.31,12.31,0,0,1-9.22,7.46l-2-3.29a8.62,8.62,0,0,0,7.52-5.46,13.69,13.69,0,0,0,1.12-4.87Q118.78,284,114.08,278.59Z"/></g></g></g></svg>